# xmcd
#
# Track frame offsets:
#	150
#	14172
#	33716
#	46132
#	61984
#	77100
#	90987
#	104881
#	117975
#	130499
#	143521
#	157529
#	176859
#	203797
#	215255
#	224674
#	237389
#	253490
#	275584
#	293838
#
# Disc length: 4091
#
# Revision: 2
# Processed by: cddbd v1.5.1PL0 Copyright (c) Steve Scherf et al.
# Submitted via: MusicManager v6.1.1.0
# Normalized: r1:DSETVAR1
#
DISCID=370ff914
DTITLE=Various Artist - Lady Sings the Blues
DYEAR=2002
DGENRE=blues 
TTITLE0=Norah Jones - Don't Know Why
TTITLE1=Randy Crawford - Rainy Night In Georgia
TTITLE2=Aretha Franklin - A Natural Woman (You Make Me Feel Like)
TTITLE3=Dusty Springfield - The Look of Love
TTITLE4=Peggy Lee - Fever
TTITLE5=Etta James - I Just Wanna Make Love to You
TTITLE6=Ella Fitzgerald - Night And Day
TTITLE7=Billie Holiday - The Ole Devil Called Love
TTITLE8=Dinah Washington - Mad About The Boy
TTITLE9=Dionne Warwick - Walk On By
TTITLE10=Nancy Wilson - All Night Long
TTITLE11=June Christy - Something Cool
TTITLE12=Sarah Vaughan - Misty
TTITLE13=Erma Franklin - Piece Of My Heart
TTITLE14=Bobbie Gentry - Son Of A Preacher Man
TTITLE15=Julie London - Cry Me A River
TTITLE16=Dinah Shore and Andre Previn - My Funny Valentine
TTITLE17=Ella Fitzgerald - Summertime
TTITLE18=Nina Simone - I Loves You Porgy
TTITLE19=Julie London - Round Midnight
EXTD=
EXTT0=
EXTT1=
EXTT2=
EXTT3=
EXTT4=
EXTT5=
EXTT6=
EXTT7=
EXTT8=
EXTT9=
EXTT10=
EXTT11=
EXTT12=
EXTT13=
EXTT14=
EXTT15=
EXTT16=
EXTT17=
EXTT18=
EXTT19=
PLAYORDER=
